<svg height="120" width="120" version="1.1" id="_x32_" xmlns="http://www.w3.org/2000/svg" viewBox="0 0 76.8 76.8" xml:space="preserve"><style>.st0{fill:#000}</style><path class="st0" d="M27.46 50.925s-0.145 -0.735 -0.43 -1.77l-3.555 5.47 2.195 11.41s-0.22 0.625 0.815 0.625c0.705 0 2.455 -0.185 4.2 -0.4l-0.755 -5.55z"/><path class="st0" d="M64.28 23.345c-5.37 -1.615 -4.25 -3.825 -8.26 -5.33s-6.89 -1.57 -9.86 -5.39c-4.26 -6.52 -11.28 -6.8 -17.3 -6.96 -7.145 -0.19 -9.295 6.08 -9.78 9.215 -0.625 4.01 -3.72 5.785 -5.265 9.405 -2.23 5.21 -3.62 9.405 -4.45 11.285a45 45 0 0 0 -0.76 1.815 10 10 0 0 1 -0.625 -0.745 9 9 0 0 1 -1.665 -4.285 9.5 9.5 0 0 1 0.405 -3.935 11.5 11.5 0 0 1 1.485 -3.03c0.38 -0.6 1.175 -1.855 0.13 -2.945l-0.58 -0.6h-0.815c-0.485 0 -1.095 0.14 -2.305 1.165q-1.57 1.35 -2.695 3.275c-0.755 1.29 -1.7 3.41 -1.9 6.16a15.2 15.2 0 0 0 1.665 8.045c1.07 2.095 2.655 3.94 4.575 5.36 -0.81 5.905 0.535 10.305 2.655 13.79 3.385 5.575 9.965 8.4 12.475 7.895 2.505 -0.5 0.655 -2.14 -0.25 -3.945 -0.75 -1.505 1.69 -4.515 0 -3.76 -3.76 0.94 -4.89 -0.185 -6.77 -3.95 -1.36 -2.715 -1.275 -5.07 -0.415 -7.02a16 16 0 0 0 4.61 -0.18 16.85 16.85 0 0 0 8.075 -3.97c1.435 2.485 2.115 6.025 2.115 6.025l2.47 9.78 1.005 7.395 0.185 2.885h10.095l-0.5 -9.655 -0.225 -6.02h9.525l4.43 4.64 -1.505 10.03h4.175l0.86 -7 -1.09 -6.425 -2.11 -1.245h3.77l0.97 8.65s-1.045 6.27 -1.045 7.02 11.58 0 11.58 0 3.38 -15.545 5.385 -25.075c0.5 -12.535 -2.875 -19.495 -12.47 -22.38m-38.8 -0.065a1.505 1.505 0 1 1 -1.505 1.505 1.5 1.5 0 0 1 1.505 -1.505m4.065 12.125a15 15 0 0 1 -0.08 0.97 15 15 0 0 1 -0.17 1.085 7 7 0 0 1 -0.455 1.465l-0.19 0.38 -0.175 0.3 -0.28 0.45q-0.285 0.45 -0.61 0.875a15 15 0 0 1 -1.42 1.655 15 15 0 0 1 -7.915 4.235 14 14 0 0 1 -4.625 0.09 13.5 13.5 0 0 1 -4.31 -1.395A13.8 13.8 0 0 1 3.385 39.615a13.35 13.35 0 0 1 -1.465 -7.045 12.5 12.5 0 0 1 1.645 -5.35c0.79 -1.355 1.66 -2.255 2.295 -2.8 0.645 -0.545 1.055 -0.755 1.105 -0.705 0.06 0.06 -0.21 0.43 -0.63 1.11a13.5 13.5 0 0 0 -1.4 3.01c-0.42 1.315 -0.675 2.95 -0.48 4.71 0.19 1.75 0.85 3.615 2.02 5.195 1.16 1.59 2.83 2.86 4.74 3.535 1.9 0.69 3.955 0.73 5.815 0.175 1.865 -0.545 3.505 -1.675 4.705 -3.055a10 10 0 0 0 0.83 -1.075l0.355 -0.565 0.165 -0.29 0.04 -0.075h-0.005v-0.005c-0.005 -0.015 -0.02 0.045 0.02 -0.145q0.04 -0.235 0.07 -0.55l0.05 -0.645 0.015 -0.62h6.32a15 15 0 0 1 -0.035 0.97m14.49 0.16c-3.605 3.22 -8.35 1.14 -10.45 -0.065a3 3 0 0 1 -1.08 -0.685s0.405 0.295 1.08 0.685c3.845 1.59 14.6 0.865 11.705 -12.72 3.01 5.265 1.405 10.41 -1.25 12.785"/></svg>
