<svg height="24px" width="24px" version="1.1" id="_x32_" xmlns="http://www.w3.org/2000/svg" xmlns:xlink="http://www.w3.org/1999/xlink" viewBox="0 0 15.36 15.36" xml:space="preserve"><style type="text/css">.st0{fill:#000000;}</style><g><path class="st0" d="M5.492 10.185s-0.029 -0.147 -0.086 -0.354l-0.711 1.094 0.439 2.282s-0.044 0.125 0.163 0.125c0.141 0 0.491 -0.037 0.84 -0.08l-0.151 -1.11z"/><path class="st0" d="M12.856 4.669c-1.074 -0.323 -0.85 -0.765 -1.652 -1.066 -0.802 -0.301 -1.378 -0.314 -1.972 -1.078 -0.852 -1.304 -2.256 -1.36 -3.46 -1.392 -1.429 -0.038 -1.859 1.216 -1.956 1.843 -0.125 0.802 -0.744 1.157 -1.053 1.881 -0.446 1.042 -0.724 1.881 -0.89 2.257 -0.055 0.123 -0.105 0.244 -0.152 0.363a1.68 1.68 0 0 1 -0.125 -0.149c-0.181 -0.244 -0.299 -0.548 -0.333 -0.857 -0.037 -0.326 0.023 -0.607 0.081 -0.787 0.071 -0.226 0.167 -0.396 0.241 -0.517 0.021 -0.034 0.039 -0.063 0.056 -0.089 0.076 -0.12 0.235 -0.371 0.026 -0.589l-0.116 -0.12h-0.163c-0.097 0 -0.219 0.028 -0.461 0.233 -0.208 0.179 -0.39 0.399 -0.539 0.655 -0.151 0.258 -0.34 0.682 -0.38 1.232 -0.041 0.544 0.077 1.117 0.333 1.609 0.214 0.419 0.531 0.788 0.915 1.072 -0.162 1.181 0.107 2.061 0.531 2.758 0.677 1.115 1.993 1.68 2.495 1.579 0.501 -0.1 0.131 -0.428 -0.05 -0.789 -0.15 -0.301 0.338 -0.903 0 -0.752 -0.752 0.188 -0.978 -0.037 -1.354 -0.79 -0.272 -0.543 -0.255 -1.014 -0.083 -1.404 0.112 0.012 0.225 0.018 0.338 0.018 0.197 0 0.394 -0.018 0.584 -0.054 0.591 -0.108 1.157 -0.388 1.615 -0.794 0.287 0.497 0.423 1.205 0.423 1.205l0.494 1.956 0.201 1.479 0.037 0.577h2.019l-0.1 -1.931 -0.045 -1.204h1.905l0.886 0.928 -0.301 2.006h0.835l0.172 -1.4 -0.218 -1.285 -0.422 -0.249h0.754l0.194 1.73s-0.209 1.254 -0.209 1.404c0 0.15 2.316 0 2.316 0s0.676 -3.109 1.077 -5.015c0.1 -2.507 -0.575 -3.899 -2.494 -4.476m-7.76 -0.013c0.166 0 0.301 0.135 0.301 0.301 0 0.166 -0.135 0.301 -0.301 0.301 -0.167 0 -0.301 -0.135 -0.301 -0.301a0.301 0.301 0 0 1 0.301 -0.301m0.813 2.425a3.33 3.33 0 0 1 -0.016 0.194c-0.008 0.068 -0.018 0.138 -0.034 0.217 -0.014 0.071 -0.045 0.193 -0.091 0.293a1.08 1.08 0 0 1 -0.038 0.076l-0.035 0.06c-0.018 0.03 -0.037 0.06 -0.056 0.09 -0.038 0.06 -0.079 0.118 -0.122 0.175a3.15 3.15 0 0 1 -0.284 0.331c-0.413 0.419 -0.972 0.735 -1.583 0.847a2.814 2.814 0 0 1 -0.925 0.018c-0.305 -0.045 -0.599 -0.142 -0.862 -0.279 -0.529 -0.271 -0.944 -0.706 -1.186 -1.178 -0.245 -0.473 -0.325 -0.976 -0.293 -1.409 0.031 -0.436 0.172 -0.801 0.329 -1.07 0.158 -0.271 0.332 -0.451 0.459 -0.56 0.129 -0.109 0.211 -0.151 0.221 -0.141 0.012 0.012 -0.042 0.086 -0.126 0.222 -0.083 0.136 -0.196 0.338 -0.28 0.602 -0.084 0.263 -0.135 0.59 -0.096 0.942 0.038 0.35 0.17 0.723 0.404 1.039 0.232 0.318 0.566 0.572 0.948 0.707 0.38 0.138 0.791 0.146 1.163 0.035 0.373 -0.109 0.701 -0.335 0.941 -0.611a2.22 2.22 0 0 0 0.166 -0.215 2.52 2.52 0 0 0 0.071 -0.113l0.033 -0.058 0.008 -0.015h-0.001l0 -0.001c-0.001 -0.003 -0.004 0.009 0.004 -0.029 0.005 -0.03 0.01 -0.069 0.014 -0.11 0.004 -0.041 0.007 -0.085 0.01 -0.129 0.002 -0.042 0.003 -0.093 0.003 -0.124h1.264a3.18 3.18 0 0 1 -0.007 0.194m2.898 0.032c-0.721 0.644 -1.67 0.228 -2.09 -0.013 -0.097 -0.04 -0.172 -0.087 -0.216 -0.137 0 0 0.081 0.059 0.216 0.137 0.769 0.318 2.92 0.173 2.341 -2.544 0.602 1.053 0.281 2.082 -0.25 2.557"/></g></svg>
